<?xml version="1.0" standalone="no"?>
<!DOCTYPE svg PUBLIC "-//W3C//DTD SVG 20010904//EN"
 "http://www.w3.org/TR/2001/REC-SVG-20010904/DTD/svg10.dtd">
<svg version="1.0" xmlns="http://www.w3.org/2000/svg"
 width="700.000000pt" height="700.000000pt" viewBox="0 0 700.000000 700.000000"
 preserveAspectRatio="xMidYMid meet">
<g transform="translate(0.000000,700.000000) scale(0.100000,-0.100000)"
fill="#000000" stroke="none">
<path d="M3278 6995 c-1 -1 -41 -6 -88 -9 -47 -4 -96 -8 -110 -10 -14 -2 -46
-7 -71 -10 -25 -4 -57 -9 -70 -11 -13 -2 -42 -6 -63 -10 -160 -23 -559 -138
-681 -194 -11 -6 -54 -24 -95 -42 -385 -164 -780 -435 -1089 -749 -432 -439
-739 -972 -895 -1560 -25 -92 -42 -172 -71 -330 -3 -14 -7 -47 -11 -75 -3 -27
-8 -57 -9 -66 -19 -98 -27 -580 -13 -724 4 -38 10 -97 14 -130 52 -520 276
-1109 597 -1569 215 -308 492 -595 779 -808 29 -21 60 -44 68 -51 48 -37 110
-77 118 -77 6 0 12 -4 14 -8 6 -16 228 -142 372 -212 219 -107 540 -222 706
-254 14 -3 59 -12 100 -21 41 -9 84 -18 95 -20 33 -6 97 -16 140 -21 22 -3 51
-7 65 -10 158 -25 682 -25 842 1 13 2 43 6 68 9 25 3 72 11 105 17 33 5 74 12
90 15 85 15 297 71 425 114 664 221 1232 628 1676 1200 223 286 438 699 549
1050 29 94 95 349 100 392 2 15 6 35 9 45 3 10 8 43 11 73 4 30 8 57 10 60 2
3 6 39 10 80 4 41 9 89 12 105 8 56 10 540 2 605 -4 36 -10 90 -13 120 -50
454 -217 959 -442 1337 -26 43 -52 87 -58 98 -23 42 -141 213 -190 275 -244
315 -516 571 -841 791 -97 65 -93 63 -230 141 -339 194 -772 345 -1155 404
-25 3 -53 8 -62 10 -9 1 -43 6 -75 9 -32 4 -76 9 -98 12 -45 5 -541 13 -547 8z
m408 -359 c415 -22 829 -133 1214 -325 835 -418 1440 -1180 1659 -2092 11 -46
23 -100 26 -119 8 -49 14 -81 19 -106 6 -32 26 -200 31 -274 13 -163 6 -425
-16 -595 -17 -137 -20 -154 -45 -273 -123 -587 -427 -1146 -850 -1567 -374
-372 -793 -627 -1289 -785 -210 -67 -437 -110 -705 -135 -68 -6 -353 -6 -454
0 -235 15 -552 80 -787 160 -792 274 -1432 836 -1805 1585 -95 191 -206 494
-239 650 -29 135 -55 278 -60 330 -3 36 -8 72 -10 80 -7 30 -17 217 -17 335 1
691 232 1366 657 1915 87 113 163 198 285 319 542 538 1281 864 2035 897 77 4
141 7 142 8 2 2 78 -1 209 -8z"/>
<path d="M3485 5363 c-66 -13 -115 -46 -143 -98 -13 -24 -17 -67 -18 -233 -1
-112 -3 -204 -5 -206 -2 -2 -51 -6 -109 -9 -420 -23 -732 -362 -715 -777 11
-279 175 -526 428 -645 136 -65 158 -68 517 -71 179 -2 348 -6 376 -9 118 -14
241 -104 299 -220 27 -55 30 -69 30 -160 0 -145 -43 -235 -150 -316 -105 -80
-112 -80 -685 -81 -277 0 -518 -5 -536 -10 -119 -32 -165 -195 -81 -287 12
-13 40 -32 62 -42 36 -17 69 -19 303 -19 l262 0 0 -72 c1 -40 1 -131 1 -202 0
-170 18 -215 101 -257 47 -24 101 -24 153 0 91 42 102 77 103 325 1 109 2 200
4 201 2 1 48 5 103 8 116 7 214 31 304 76 189 94 334 269 392 476 29 103 32
277 6 375 -68 254 -248 446 -500 532 l-92 32 -330 3 c-181 1 -353 5 -381 8
-118 14 -242 106 -296 221 -117 250 58 542 332 553 30 1 267 3 525 4 456 2
471 3 502 23 116 74 119 227 5 305 -35 24 -39 24 -304 27 l-268 3 0 192 c0
106 -5 208 -10 227 -19 67 -120 135 -185 123z"/>
</g>
</svg>
