<?xml version="1.0" encoding="UTF-8"?>
<svg xmlns="http://www.w3.org/2000/svg" xmlns:xlink="http://www.w3.org/1999/xlink" width="100px" height="px" viewBox="0 0 100 100" version="1.1">
<g id="surface1">
<path style=" stroke:none;fill-rule:nonzero;fill:rgb(100%,71.764706%,30.196078%);fill-opacity:1;" d="M 100 50 C 100.003906 54.351562 99.4375 58.6875 98.3125 62.890625 C 97.402344 66.328125 96.113281 69.65625 94.46875 72.8125 C 85.207031 90.9375 65.882812 101.636719 45.605469 99.871094 C 25.328125 98.105469 8.148438 84.222656 2.160156 64.769531 C -3.828125 45.316406 2.570312 24.175781 18.34375 11.3125 C 23.847656 6.820312 30.238281 3.542969 37.09375 1.6875 C 41.304688 0.5625 45.644531 -0.00390625 50 0 C 56.308594 -0.015625 62.5625 1.183594 68.421875 3.53125 C 69.746094 4.03125 71.039062 4.613281 72.296875 5.265625 C 72.847656 5.527344 73.402344 5.816406 73.953125 6.140625 C 77.074219 7.832031 80.003906 9.859375 82.6875 12.1875 C 84.523438 13.761719 86.238281 15.476562 87.8125 17.3125 C 90.140625 19.996094 92.167969 22.925781 93.859375 26.046875 C 95.582031 29.125 96.941406 32.390625 97.90625 35.78125 C 99.300781 40.390625 100.007812 45.183594 100 50 Z M 100 50 "/>
<path style=" stroke:none;fill-rule:nonzero;fill:rgb(93.72549%,56.470588%,7.843137%);fill-opacity:1;" d="M 89.46875 50 C 89.46875 71.796875 71.796875 89.46875 50 89.46875 C 28.203125 89.46875 10.53125 71.796875 10.53125 50 C 10.53125 28.203125 28.203125 10.53125 50 10.53125 C 71.796875 10.53125 89.46875 28.203125 89.46875 50 Z M 89.46875 50 "/>
<path style=" stroke:none;fill-rule:nonzero;fill:rgb(100%,71.764706%,30.196078%);fill-opacity:1;" d="M 34.578125 67.3125 C 34.816406 65.65625 35.058594 64 35.296875 62.34375 C 35.375 61.78125 35.296875 61.8125 35.84375 61.828125 C 36.742188 61.894531 37.648438 61.894531 38.546875 61.828125 C 38.972656 61.777344 39.34375 61.503906 39.515625 61.109375 C 39.667969 60.78125 39.738281 60.421875 39.71875 60.0625 C 39.71875 53.355469 39.71875 46.644531 39.71875 39.9375 C 39.792969 38.925781 39.136719 38 38.15625 37.734375 C 37.730469 37.640625 37.296875 37.601562 36.859375 37.609375 C 36.078125 37.609375 35.296875 37.609375 34.5 37.609375 L 34.5 32.609375 L 42.1875 32.609375 C 42.46875 32.609375 42.5 32.609375 42.5 32.234375 C 42.5 31.4375 42.5 30.671875 42.5 29.859375 C 42.5 28.296875 42.5 26.890625 42.5 25.390625 C 42.5 25.265625 42.5 25.140625 42.5 25.015625 L 46.4375 25.015625 C 46.46875 25.164062 46.46875 25.320312 46.4375 25.46875 C 46.4375 27.625 46.4375 29.777344 46.4375 31.921875 C 46.4375 32.015625 46.4375 32.109375 46.4375 32.203125 C 46.4375 32.296875 46.4375 32.4375 46.640625 32.4375 L 49.21875 32.4375 C 49.546875 32.4375 49.546875 32.4375 49.546875 32.015625 C 49.546875 29.828125 49.546875 27.644531 49.546875 25.46875 C 49.546875 25.328125 49.546875 25.203125 49.546875 25.0625 L 53.53125 25.0625 C 53.53125 25.203125 53.53125 25.328125 53.53125 25.46875 C 53.53125 27.707031 53.53125 29.941406 53.53125 32.171875 C 53.53125 32.25 53.53125 32.34375 53.53125 32.421875 C 53.53125 32.5 53.53125 32.640625 53.71875 32.65625 L 54.875 32.8125 C 56.359375 33.011719 57.800781 33.457031 59.140625 34.125 C 60.351562 34.722656 61.363281 35.664062 62.046875 36.828125 C 63.074219 38.738281 63.429688 40.941406 63.0625 43.078125 C 62.867188 45.085938 61.777344 46.902344 60.09375 48.015625 C 60.015625 48.015625 59.90625 48.109375 59.84375 48.21875 C 59.78125 48.328125 59.984375 48.21875 60.0625 48.3125 C 60.542969 48.464844 61.015625 48.652344 61.46875 48.875 C 63.417969 49.8125 64.800781 51.625 65.1875 53.75 C 65.371094 54.359375 65.515625 54.980469 65.625 55.609375 L 65.625 56.875 C 65.625 56.953125 65.625 57.046875 65.625 57.125 C 65.601562 57.820312 65.53125 58.515625 65.40625 59.203125 C 65.085938 61.902344 63.503906 64.285156 61.140625 65.625 C 59.757812 66.363281 58.253906 66.859375 56.703125 67.09375 C 55.84375 67.246094 54.980469 67.351562 54.109375 67.40625 C 53.6875 67.40625 53.6875 67.40625 53.6875 67.9375 C 53.6875 70.1875 53.6875 72.4375 53.6875 74.6875 C 53.6875 75.0625 53.6875 75.078125 53.359375 75.078125 L 50 75.078125 C 49.640625 75.078125 49.640625 75.078125 49.640625 74.671875 C 49.640625 72.410156 49.640625 70.152344 49.640625 67.890625 C 49.640625 67.578125 49.640625 67.5625 49.359375 67.5625 C 48.5 67.5625 47.640625 67.5625 46.78125 67.5625 C 46.609375 67.5625 46.515625 67.5625 46.53125 67.828125 C 46.546875 68.09375 46.53125 68 46.53125 68.078125 C 46.53125 70.277344 46.53125 72.480469 46.53125 74.6875 C 46.53125 75.125 46.53125 75.125 46.140625 75.125 L 42.875 75.125 C 42.5625 75.125 42.5625 75.125 42.5625 74.765625 C 42.5625 72.496094 42.5625 70.222656 42.5625 67.953125 C 42.5625 64.546875 42.5625 67.828125 42.5625 67.78125 C 42.5625 67.734375 42.5625 67.5 42.3125 67.5 L 34.578125 67.5 Z M 46.671875 56.78125 C 46.671875 58.34375 46.671875 59.90625 46.671875 61.46875 C 46.671875 61.796875 46.671875 61.8125 46.96875 61.8125 C 48.234375 61.8125 49.5 61.8125 50.78125 61.8125 C 51.703125 61.757812 52.617188 61.613281 53.515625 61.390625 C 54.519531 61.132812 55.453125 60.660156 56.25 60 C 57.902344 58.414062 58.132812 55.855469 56.796875 54 C 56.253906 53.304688 55.539062 52.765625 54.71875 52.4375 C 53.273438 51.898438 51.746094 51.625 50.203125 51.625 C 49.109375 51.625 48.015625 51.625 46.90625 51.625 C 46.625 51.625 46.609375 51.625 46.609375 51.96875 C 46.652344 53.605469 46.671875 55.207031 46.671875 56.78125 Z M 46.671875 42.453125 C 46.671875 43.859375 46.671875 45.269531 46.671875 46.6875 C 46.671875 47.015625 46.671875 47.03125 46.96875 47.03125 C 48.242188 47.066406 49.515625 47.015625 50.78125 46.875 C 51.820312 46.773438 52.832031 46.484375 53.765625 46.015625 C 55.449219 45.117188 56.269531 43.160156 55.734375 41.328125 C 55.535156 40.289062 54.890625 39.390625 53.96875 38.875 C 52.75 38.21875 51.382812 37.882812 50 37.890625 C 49 37.890625 48.015625 37.890625 47.015625 37.890625 C 46.703125 37.890625 46.671875 37.890625 46.671875 38.296875 C 46.671875 39.683594 46.671875 41.066406 46.671875 42.453125 Z M 46.671875 42.453125 "/>
</g>
</svg>
