<svg xmlns="http://www.w3.org/2000/svg" viewBox="0 0 64 64"><defs><style>.cls-1{fill:#ffb74d;}.cls-2{fill:#ef9014;}</style></defs><title>Coin Bitcoin</title><g id="Layer_2" data-name="Layer 2"><g id="Layer_1-2" data-name="Layer 1"><path class="cls-1" d="M64,32a31.86,31.86,0,0,1-1.08,8.25,30.8,30.8,0,0,1-2.46,6.35A32,32,0,1,1,11.74,7.24a32.34,32.34,0,0,1,12-6.16A31.86,31.86,0,0,1,32,0,31.52,31.52,0,0,1,43.79,2.26a23.2,23.2,0,0,1,2.48,1.11q.53.25,1.06.56A31.22,31.22,0,0,1,52.92,7.8a30.22,30.22,0,0,1,3.28,3.28,31.23,31.23,0,0,1,3.87,5.59,29,29,0,0,1,2.59,6.23A31.26,31.26,0,0,1,64,32Z"/><circle class="cls-2" cx="32" cy="32" r="25.26"/><g id="_84AtXo.tif" data-name="84AtXo.tif"><path class="cls-1" d="M22.13,43.08s0,0,0,0q.23-1.59.46-3.18c.05-.36,0-.34.35-.33a11.84,11.84,0,0,0,1.73,0,.78.78,0,0,0,.62-.46,1.43,1.43,0,0,0,.13-.67q0-6.44,0-12.88a1.36,1.36,0,0,0-1-1.41,3.54,3.54,0,0,0-.83-.08c-.5,0-1,0-1.51,0V20.87H27c.18,0,.2,0,.2-.24,0-.51,0-1,0-1.52,0-1,0-1.9,0-2.86,0-.08,0-.16,0-.24h2.52a.74.74,0,0,1,0,.29q0,2.07,0,4.13c0,.06,0,.12,0,.18s0,.15.13.15l1.65,0c.21,0,.21,0,.21-.27q0-2.1,0-4.19c0-.09,0-.17,0-.26h2.55c0,.09,0,.17,0,.26q0,2.15,0,4.29c0,.05,0,.11,0,.16s0,.14.12.15l.74.1a8.71,8.71,0,0,1,2.73.84,4.45,4.45,0,0,1,1.86,1.73,6.22,6.22,0,0,1,.65,4,4.29,4.29,0,0,1-1.9,3.16c-.05,0-.12.06-.16.13s.09,0,.14.06a6.58,6.58,0,0,1,.9.36,4.32,4.32,0,0,1,2.38,3.12A10,10,0,0,1,42,35.59v.81c0,.05,0,.11,0,.16a9.18,9.18,0,0,1-.14,1.33A5.46,5.46,0,0,1,39.13,42a8.82,8.82,0,0,1-2.84.94,15.18,15.18,0,0,1-1.66.2c-.27,0-.27,0-.27.34q0,2.16,0,4.32c0,.24,0,.25-.21.25H32c-.23,0-.23,0-.23-.26q0-2.17,0-4.34c0-.2,0-.21-.18-.21-.55,0-1.1,0-1.65,0-.11,0-.17,0-.16.17s0,.11,0,.16q0,2.11,0,4.23c0,.28,0,.28-.25.28H27.44c-.2,0-.2,0-.2-.23q0-2.18,0-4.36s0-.08,0-.11,0-.18-.16-.18l-.87,0H22.13Zm7.74-6.74h0q0,1.5,0,3c0,.21,0,.22.19.22.81,0,1.62,0,2.44,0a9.64,9.64,0,0,0,1.75-.27A4.51,4.51,0,0,0,36,38.4a2.94,2.94,0,0,0,.35-3.84,3.18,3.18,0,0,0-1.33-1,8.25,8.25,0,0,0-2.89-.52c-.7,0-1.4,0-2.11,0-.18,0-.19,0-.19.22Q29.87,34.83,29.87,36.34Zm0-9.17q0,1.35,0,2.71c0,.21,0,.22.19.22A17.72,17.72,0,0,0,32.5,30a5.41,5.41,0,0,0,1.91-.55,2.58,2.58,0,0,0,1.26-3,2.29,2.29,0,0,0-1.13-1.57A5.29,5.29,0,0,0,32,24.25c-.64,0-1.27,0-1.91,0-.2,0-.22,0-.22.26Q29.87,25.84,29.87,27.17Z"/></g></g></g></svg>