<?xml version="1.0" encoding="UTF-8"?>
<svg xmlns="http://www.w3.org/2000/svg" xmlns:xlink="http://www.w3.org/1999/xlink" width="100px" height="px" viewBox="0 0 100 100" version="1.1">
<g id="surface1">
<path style=" stroke:none;fill-rule:nonzero;fill:rgb(93.72549%,78.039216%,36.862745%);fill-opacity:1;" d="M 50 0 C 77.617188 0 100 22.386719 100 50 C 100 77.613281 77.617188 100 50 100 C 22.382812 100 0 77.613281 0 50 C 0 22.386719 22.382812 0 50 0 Z M 50 0 "/>
<path style=" stroke:none;fill-rule:nonzero;fill:rgb(80%,60%,20%);fill-opacity:1;" d="M 50 9.375 C 27.5625 9.375 9.375 27.5625 9.375 50 C 9.375 72.4375 27.5625 90.625 50 90.625 C 72.4375 90.625 90.625 72.4375 90.625 50 C 90.625 27.5625 72.4375 9.375 50 9.375 Z M 50 84.375 C 31.015625 84.375 15.625 68.984375 15.625 50 C 15.625 31.015625 31.015625 15.625 50 15.625 C 68.984375 15.625 84.375 31.015625 84.375 50 C 84.375 68.984375 68.988281 84.375 50 84.375 Z M 54.15625 47.390625 C 52.289062 46.605469 45.417969 45.523438 45.417969 42.519531 C 45.417969 40.304688 47.988281 39.664062 49.527344 39.664062 C 50.929688 39.664062 52.613281 40.105469 53.5 40.992188 C 54.0625 41.53125 54.292969 41.925781 54.480469 42.46875 C 54.714844 43.109375 54.855469 43.796875 55.742188 43.796875 L 60.320312 43.796875 C 61.394531 43.796875 61.675781 43.601562 61.675781 42.417969 C 61.675781 37.351562 57.703125 34.492188 53.171875 33.507812 L 53.171875 29.570312 C 53.171875 28.6875 52.890625 28.144531 51.816406 28.144531 L 48.167969 28.144531 C 47.09375 28.144531 46.8125 28.683594 46.8125 29.570312 L 46.8125 33.359375 C 41.953125 34.292969 37.890625 37.347656 37.890625 42.859375 C 37.890625 49.109375 42.238281 51.078125 46.953125 52.652344 C 50.925781 53.980469 55.085938 54.027344 55.085938 56.785156 C 55.085938 59.542969 53.03125 60.132812 50.507812 60.132812 C 48.777344 60.132812 46.863281 59.683594 45.925781 58.507812 C 45.320312 57.769531 45.085938 57.128906 45.042969 56.488281 C 44.949219 55.257812 44.433594 55.109375 43.355469 55.109375 L 38.824219 55.109375 C 37.75 55.109375 37.46875 55.359375 37.46875 56.488281 C 37.46875 62.097656 41.957031 65.496094 46.8125 66.578125 L 46.8125 70.417969 C 46.8125 71.304688 47.09375 71.847656 48.167969 71.847656 L 51.816406 71.847656 C 52.890625 71.847656 53.171875 71.304688 53.171875 70.417969 L 53.171875 66.683594 C 58.683594 65.839844 62.46875 62.496094 62.46875 56.589844 C 62.476562 49.898438 57.523438 48.472656 54.15625 47.390625 Z M 54.15625 47.390625 "/>
</g>
</svg>
