<?xml version="1.0" ?><!DOCTYPE svg  PUBLIC '-//W3C//DTD SVG 1.1//EN'  'http://www.w3.org/Graphics/SVG/1.1/DTD/svg11.dtd'><svg height="32px" id="_x3C_Layer_x3E_" style="enable-background:new 0 0 32 32;" version="1.1" viewBox="0 0 32 32" width="32px" xml:space="preserve" xmlns="http://www.w3.org/2000/svg" xmlns:xlink="http://www.w3.org/1999/xlink"><style type="text/css">
<![CDATA[
	.st0{fill:#E3F2FD;}
	.st1{fill:#80D8FF;}
	.st2{fill:#1AD2A4;}
	.st3{fill:#ECEFF1;}
	.st4{fill:#55FB9B;}
	.st5{fill:#BBDEFB;}
	.st6{fill:#C1AEE1;}
	.st7{fill:#FF5252;}
	.st8{fill:#FF8A80;}
	.st9{fill:#FFB74D;}
	.st10{fill:#FFF176;}
	.st11{fill:#FFFFFF;}
	.st12{fill:#65C7EA;}
	.st13{fill:#CFD8DC;}
	.st14{fill:#37474F;}
	.st15{fill:#78909C;}
	.st16{fill:#42A5F5;}
	.st17{fill:#455A64;}
]]>
</style><g id="Dash_DASH_3_"><g id="XMLID_161_"><g id="XMLID_193_"><circle class="st16" cx="16" cy="16" id="XMLID_58_" r="14.5"/></g><g id="XMLID_167_"><path class="st11" d="M18.44,7.79c6.09,0,7.16,3.31,6.3,7.98c-0.58,3.13-2.03,5.53-4.46,6.65     c-1.1,0.51-2.13,0.79-4.57,0.79h-6.9L9.38,20l6.07,0.01c3.65,0,4.63-1.58,5.1-2.97c0.18-0.52,0.59-2.12,0.6-3.07     C21.18,12.12,20.27,11,17.2,11l-6.25-0.01l0.58-3.2H18.44z" id="XMLID_59_"/></g><g id="XMLID_166_"><path class="st11" d="M8.54,13.89h7.09c0,0-0.08,0.38-0.3,1.31c-0.17,0.72-0.43,1.9-2.25,1.9H6     c0,0,0.07-0.38,0.3-1.32C6.47,15.07,6.73,13.89,8.54,13.89z" id="XMLID_60_"/></g></g><g id="XMLID_160_"><g id="XMLID_290_"><path class="st17" d="M15.71,23.71h-6.9c-0.15,0-0.29-0.07-0.38-0.18c-0.09-0.11-0.13-0.26-0.11-0.41l0.57-3.21     c0.04-0.24,0.25-0.41,0.49-0.41h0l6.07,0.01c3.29,0,4.19-1.33,4.63-2.63c0.19-0.55,0.56-2.08,0.57-2.92     c0.01-0.78-0.15-1.31-0.52-1.69c-0.52-0.52-1.47-0.78-2.93-0.78l-6.25-0.01c-0.28,0-0.5-0.22-0.5-0.5c0-0.28,0.22-0.5,0.5-0.5     c0,0,0,0,0,0l6.25,0.01c1.74,0,2.93,0.35,3.64,1.08c0.56,0.57,0.82,1.35,0.81,2.4c-0.01,1.04-0.45,2.71-0.63,3.23     c-0.52,1.54-1.62,3.31-5.57,3.31L9.8,20.5l-0.39,2.21h6.3c2.33,0,3.3-0.25,4.36-0.74c2.16-0.99,3.6-3.17,4.18-6.29     c0.49-2.67,0.26-4.54-0.71-5.7c-0.94-1.13-2.61-1.69-5.1-1.69h-6.49l-0.19,1.07c-0.05,0.27-0.31,0.45-0.58,0.4     c-0.27-0.05-0.45-0.31-0.4-0.58l0.27-1.48c0.04-0.24,0.25-0.41,0.49-0.41h6.91c2.8,0,4.72,0.67,5.86,2.04     c1.17,1.41,1.48,3.54,0.93,6.53c-0.64,3.45-2.28,5.88-4.74,7.01C19.32,23.42,18.21,23.71,15.71,23.71z" id="XMLID_712_"/></g><g id="XMLID_164_"><path class="st17" d="M13.08,17.6H6c-0.28,0-0.5-0.22-0.5-0.5s0.22-0.5,0.5-0.5h7.08c1.41,0,1.59-0.79,1.76-1.49     c0.07-0.29,0.12-0.53,0.17-0.72H8.54c-1.25,0-1.53,0.64-1.69,1.24c-0.07,0.27-0.35,0.43-0.61,0.35     c-0.27-0.07-0.43-0.35-0.35-0.61c0.13-0.49,0.53-1.98,2.65-1.98h7.09c0.15,0,0.29,0.07,0.39,0.19c0.1,0.12,0.13,0.27,0.1,0.42     c0,0-0.08,0.38-0.3,1.32C15.64,16.07,15.28,17.6,13.08,17.6z" id="XMLID_711_"/></g><g id="XMLID_190_"><path class="st17" d="M16,31C7.73,31,1,24.27,1,16S7.73,1,16,1s15,6.73,15,15S24.27,31,16,31z M16,2     C8.28,2,2,8.28,2,16s6.28,14,14,14s14-6.28,14-14S23.72,2,16,2z" id="XMLID_708_"/></g></g></g></svg>