<?xml version="1.0" encoding="UTF-8"?>
<svg xmlns="http://www.w3.org/2000/svg" xmlns:xlink="http://www.w3.org/1999/xlink" width="100px" height="px" viewBox="0 0 100 100" version="1.1">
<g id="surface1">
<path style=" stroke:none;fill-rule:nonzero;fill:rgb(25.882353%,64.705882%,96.078431%);fill-opacity:1;" d="M 95.3125 50 C 95.3125 75.027344 75.027344 95.3125 50 95.3125 C 24.972656 95.3125 4.6875 75.027344 4.6875 50 C 4.6875 24.972656 24.972656 4.6875 50 4.6875 C 75.027344 4.6875 95.3125 24.972656 95.3125 50 Z M 95.3125 50 "/>
<path style=" stroke:none;fill-rule:nonzero;fill:rgb(100%,100%,100%);fill-opacity:1;" d="M 57.625 24.34375 C 76.65625 24.34375 80 34.6875 77.3125 49.28125 C 75.5 59.0625 70.96875 66.5625 63.375 70.0625 C 59.9375 71.65625 56.71875 72.53125 49.09375 72.53125 L 27.53125 72.53125 L 29.3125 62.5 L 48.28125 62.53125 C 59.6875 62.53125 62.75 57.59375 64.21875 53.25 C 64.78125 51.625 66.0625 46.625 66.09375 43.65625 C 66.1875 37.875 63.34375 34.375 53.75 34.375 L 34.21875 34.34375 L 36.03125 24.34375 Z M 57.625 24.34375 "/>
<path style=" stroke:none;fill-rule:nonzero;fill:rgb(100%,100%,100%);fill-opacity:1;" d="M 26.6875 43.40625 L 48.84375 43.40625 C 48.84375 43.40625 48.59375 44.59375 47.90625 47.5 C 47.375 49.75 46.5625 53.4375 40.875 53.4375 L 18.75 53.4375 C 18.75 53.4375 18.96875 52.25 19.6875 49.3125 C 20.21875 47.09375 21.03125 43.40625 26.6875 43.40625 Z M 26.6875 43.40625 "/>
<path style=" stroke:none;fill-rule:nonzero;fill:rgb(27.058824%,35.294118%,39.215686%);fill-opacity:1;" d="M 49.09375 74.09375 L 27.53125 74.09375 C 27.0625 74.09375 26.625 73.875 26.34375 73.53125 C 26.0625 73.1875 25.9375 72.71875 26 72.25 L 27.78125 62.21875 C 27.90625 61.46875 28.5625 60.9375 29.3125 60.9375 L 48.28125 60.96875 C 58.5625 60.96875 61.375 56.8125 62.75 52.75 C 63.34375 51.03125 64.5 46.25 64.53125 43.625 C 64.5625 41.1875 64.0625 39.53125 62.90625 38.34375 C 61.28125 36.71875 58.3125 35.90625 53.75 35.90625 L 34.21875 35.875 C 33.34375 35.875 32.65625 35.1875 32.65625 34.3125 C 32.65625 33.4375 33.34375 32.75 34.21875 32.75 L 53.75 32.78125 C 59.1875 32.78125 62.90625 33.875 65.125 36.15625 C 66.875 37.9375 67.6875 40.375 67.65625 43.65625 C 67.625 46.90625 66.25 52.125 65.6875 53.75 C 64.0625 58.5625 60.625 64.09375 48.28125 64.09375 L 30.625 64.0625 L 29.40625 70.96875 L 49.09375 70.96875 C 56.375 70.96875 59.40625 70.1875 62.71875 68.65625 C 69.46875 65.5625 73.96875 58.75 75.78125 49 C 77.3125 40.65625 76.59375 34.8125 73.5625 31.1875 C 70.625 27.65625 65.40625 25.90625 57.625 25.90625 L 37.34375 25.90625 L 36.75 29.25 C 36.59375 30.09375 35.78125 30.65625 34.9375 30.5 C 34.09375 30.34375 33.53125 29.53125 33.6875 28.6875 L 34.53125 24.0625 C 34.65625 23.3125 35.3125 22.78125 36.0625 22.78125 L 57.65625 22.78125 C 66.40625 22.78125 72.40625 24.875 75.96875 29.15625 C 79.625 33.5625 80.59375 40.21875 78.875 49.5625 C 76.875 60.34375 71.75 67.9375 64.0625 71.46875 C 60.375 73.1875 56.90625 74.09375 49.09375 74.09375 Z M 49.09375 74.09375 "/>
<path style=" stroke:none;fill-rule:nonzero;fill:rgb(27.058824%,35.294118%,39.215686%);fill-opacity:1;" d="M 40.875 55 L 18.75 55 C 17.875 55 17.1875 54.3125 17.1875 53.4375 C 17.1875 52.5625 17.875 51.875 18.75 51.875 L 40.875 51.875 C 45.28125 51.875 45.84375 49.40625 46.375 47.21875 C 46.59375 46.3125 46.75 45.5625 46.90625 44.96875 L 26.6875 44.96875 C 22.78125 44.96875 21.90625 46.96875 21.40625 48.84375 C 21.1875 49.6875 20.3125 50.1875 19.5 49.9375 C 18.65625 49.71875 18.15625 48.84375 18.40625 48.03125 C 18.8125 46.5 20.0625 41.84375 26.6875 41.84375 L 48.84375 41.84375 C 49.3125 41.84375 49.75 42.0625 50.0625 42.4375 C 50.375 42.8125 50.46875 43.28125 50.375 43.75 C 50.375 43.75 50.125 44.9375 49.4375 47.875 C 48.875 50.21875 47.75 55 40.875 55 Z M 40.875 55 "/>
<path style=" stroke:none;fill-rule:nonzero;fill:rgb(27.058824%,35.294118%,39.215686%);fill-opacity:1;" d="M 50 96.875 C 24.15625 96.875 3.125 75.84375 3.125 50 C 3.125 24.15625 24.15625 3.125 50 3.125 C 75.84375 3.125 96.875 24.15625 96.875 50 C 96.875 75.84375 75.84375 96.875 50 96.875 Z M 50 6.25 C 25.875 6.25 6.25 25.875 6.25 50 C 6.25 74.125 25.875 93.75 50 93.75 C 74.125 93.75 93.75 74.125 93.75 50 C 93.75 25.875 74.125 6.25 50 6.25 Z M 50 6.25 "/>
</g>
</svg>
