<?xml version="1.0" encoding="UTF-8"?>
<svg xmlns="http://www.w3.org/2000/svg" xmlns:xlink="http://www.w3.org/1999/xlink" width="100px" height="px" viewBox="0 0 100 100" version="1.1">
<g id="surface1">
<path style=" stroke:none;fill-rule:nonzero;fill:rgb(25.882353%,64.705882%,96.078431%);fill-opacity:1;" d="M 95.3125 50 C 95.3125 75.027344 75.027344 95.3125 50 95.3125 C 24.972656 95.3125 4.6875 75.027344 4.6875 50 C 4.6875 24.972656 24.972656 4.6875 50 4.6875 C 75.027344 4.6875 95.3125 24.972656 95.3125 50 Z M 95.3125 50 "/>
<path style=" stroke:none;fill-rule:nonzero;fill:rgb(89.019608%,94.901961%,99.215686%);fill-opacity:1;" d="M 50 16.15625 L 29.6875 50 L 50 83.84375 L 70.3125 50 Z M 50 16.15625 "/>
<path style=" stroke:none;fill-rule:nonzero;fill:rgb(73.333333%,87.058824%,98.431373%);fill-opacity:1;" d="M 50 60.03125 L 29.6875 50 L 50 83.84375 L 70.3125 50 Z M 50 60.03125 "/>
<path style=" stroke:none;fill-rule:nonzero;fill:rgb(27.058824%,35.294118%,39.215686%);fill-opacity:1;" d="M 50 85.40625 C 49.71875 85.40625 49.4375 85.34375 49.1875 85.1875 C 48.4375 84.75 48.21875 83.78125 48.65625 83.03125 L 68.5 50 L 50 19.1875 L 31.03125 50.8125 C 30.59375 51.5625 29.625 51.78125 28.875 51.34375 C 28.125 50.90625 27.90625 49.9375 28.34375 49.1875 L 48.65625 15.34375 C 49.21875 14.40625 50.78125 14.40625 51.34375 15.34375 L 71.65625 49.1875 C 71.9375 49.6875 71.9375 50.3125 71.65625 50.78125 L 51.34375 84.625 C 51.03125 85.15625 50.53125 85.40625 50 85.40625 Z M 50 85.40625 "/>
<path style=" stroke:none;fill-rule:nonzero;fill:rgb(27.058824%,35.294118%,39.215686%);fill-opacity:1;" d="M 50 85.40625 C 49.46875 85.40625 48.96875 85.125 48.65625 84.65625 L 28.34375 50.8125 C 27.90625 50.0625 28.125 49.125 28.875 48.65625 C 29.59375 48.21875 30.5625 48.4375 31.03125 49.1875 L 51.34375 83.03125 C 51.78125 83.78125 51.5625 84.71875 50.8125 85.1875 C 50.5625 85.34375 50.28125 85.40625 50 85.40625 Z M 50 85.40625 "/>
<path style=" stroke:none;fill-rule:nonzero;fill:rgb(27.058824%,35.294118%,39.215686%);fill-opacity:1;" d="M 70.3125 51.5625 C 70.0625 51.5625 69.84375 51.5 69.625 51.40625 L 55.53125 44.34375 C 54.75 43.96875 54.4375 43.03125 54.84375 42.25 C 55.21875 41.46875 56.15625 41.15625 56.9375 41.5625 L 71.03125 48.625 C 71.8125 49 72.125 49.9375 71.71875 50.71875 C 71.4375 51.25 70.875 51.5625 70.3125 51.5625 Z M 70.3125 51.5625 "/>
<path style=" stroke:none;fill-rule:nonzero;fill:rgb(27.058824%,35.294118%,39.215686%);fill-opacity:1;" d="M 29.6875 51.5625 C 29.125 51.5625 28.5625 51.25 28.28125 50.6875 C 27.90625 49.90625 28.21875 48.96875 28.96875 48.59375 L 43.0625 41.53125 C 43.84375 41.15625 44.78125 41.46875 45.15625 42.21875 C 45.53125 43 45.21875 43.9375 44.46875 44.3125 L 30.375 51.375 C 30.15625 51.5 29.9375 51.5625 29.6875 51.5625 Z M 29.6875 51.5625 "/>
<path style=" stroke:none;fill-rule:nonzero;fill:rgb(27.058824%,35.294118%,39.215686%);fill-opacity:1;" d="M 50 85.40625 C 49.4375 85.40625 48.9375 85.125 48.65625 84.65625 L 28.34375 50.8125 C 28 50.21875 28.0625 49.46875 28.53125 48.9375 C 29 48.4375 29.75 48.28125 30.375 48.59375 L 50 58.40625 L 69.625 48.59375 C 70.25 48.28125 71 48.40625 71.46875 48.9375 C 71.9375 49.4375 72.03125 50.21875 71.65625 50.8125 L 51.34375 84.65625 C 51.0625 85.125 50.5625 85.40625 50 85.40625 Z M 33.78125 53.78125 L 50 80.8125 L 66.21875 53.78125 L 50.71875 61.53125 C 50.28125 61.75 49.75 61.75 49.3125 61.53125 Z M 33.78125 53.78125 "/>
<path style=" stroke:none;fill-rule:nonzero;fill:rgb(27.058824%,35.294118%,39.215686%);fill-opacity:1;" d="M 50 60.53125 C 49.125 60.53125 48.4375 59.84375 48.4375 58.96875 L 48.4375 28.125 C 48.4375 27.25 49.125 26.5625 50 26.5625 C 50.875 26.5625 51.5625 27.25 51.5625 28.125 L 51.5625 58.96875 C 51.5625 59.84375 50.875 60.53125 50 60.53125 Z M 50 60.53125 "/>
<path style=" stroke:none;fill-rule:nonzero;fill:rgb(27.058824%,35.294118%,39.215686%);fill-opacity:1;" d="M 50 85.40625 C 49.4375 85.40625 48.9375 85.125 48.65625 84.65625 L 28.34375 50.8125 C 28.0625 50.3125 28.0625 49.6875 28.34375 49.21875 L 48.65625 15.375 C 49.21875 14.4375 50.78125 14.4375 51.34375 15.375 L 71.65625 49.21875 C 71.9375 49.71875 71.9375 50.34375 71.65625 50.8125 L 51.34375 84.65625 C 51.0625 85.125 50.5625 85.40625 50 85.40625 Z M 31.5 50 L 50 80.8125 L 68.5 50 L 50 19.1875 Z M 31.5 50 "/>
<path style=" stroke:none;fill-rule:nonzero;fill:rgb(27.058824%,35.294118%,39.215686%);fill-opacity:1;" d="M 50 96.875 C 24.15625 96.875 3.125 75.84375 3.125 50 C 3.125 24.15625 24.15625 3.125 50 3.125 C 75.84375 3.125 96.875 24.15625 96.875 50 C 96.875 75.84375 75.84375 96.875 50 96.875 Z M 50 6.25 C 25.875 6.25 6.25 25.875 6.25 50 C 6.25 74.125 25.875 93.75 50 93.75 C 74.125 93.75 93.75 74.125 93.75 50 C 93.75 25.875 74.125 6.25 50 6.25 Z M 50 6.25 "/>
</g>
</svg>
