<?xml version="1.0" encoding="UTF-8"?>
<svg xmlns="http://www.w3.org/2000/svg" xmlns:xlink="http://www.w3.org/1999/xlink" width="100px" height="px" viewBox="0 0 100 100" version="1.1">
<g id="surface1">
<path style=" stroke:none;fill-rule:nonzero;fill:rgb(100%,100%,100%);fill-opacity:1;" d="M 95.3125 50 C 95.3125 75.03125 75.03125 95.3125 50 95.3125 C 24.96875 95.3125 4.6875 75.03125 4.6875 50 C 4.6875 24.96875 24.96875 4.6875 50 4.6875 C 75.03125 4.6875 95.3125 24.96875 95.3125 50 Z M 95.3125 50 "/>
<path style=" stroke:none;fill-rule:nonzero;fill:rgb(47.058824%,56.470588%,61.176471%);fill-opacity:1;" d="M 69.625 73.53125 L 88.71875 73.53125 C 80.78125 86.59375 66.40625 95.3125 50 95.3125 C 33.59375 95.3125 19.21875 86.59375 11.28125 73.53125 L 30.375 73.53125 L 30.375 49.5625 L 50 69.1875 L 69.625 49.5625 Z M 69.625 73.53125 "/>
<path style=" stroke:none;fill-rule:nonzero;fill:rgb(100%,71.764706%,30.196078%);fill-opacity:1;" d="M 50 4.6875 C 75.03125 4.6875 95.34375 24.96875 95.3125 50 C 95.3125 55 94.5 59.5625 93 64.0625 L 79.4375 64.0625 L 79.4375 29.96875 C 79.4375 28.5625 77.75 27.875 76.78125 28.84375 L 50 55.625 L 23.21875 28.84375 C 22.21875 27.875 20.5625 28.5625 20.5625 29.96875 L 20.5625 64.0625 L 7 64.0625 C 5.5 59.5625 4.6875 55 4.6875 50 C 4.65625 25 24.96875 4.6875 50 4.6875 Z M 50 4.6875 "/>
<path style=" stroke:none;fill-rule:nonzero;fill:rgb(27.058824%,35.294118%,39.215686%);fill-opacity:1;" d="M 50 96.875 C 33.5 96.875 18.53125 88.4375 9.9375 74.34375 C 9.65625 73.875 9.625 73.25 9.90625 72.78125 C 10.1875 72.28125 10.6875 72 11.28125 72 L 28.8125 72 L 28.8125 49.59375 C 28.8125 48.96875 29.1875 48.40625 29.78125 48.15625 C 30.375 47.90625 31.03125 48.0625 31.46875 48.5 L 50 66.96875 L 68.53125 48.4375 C 68.96875 48 69.65625 47.84375 70.21875 48.09375 C 70.8125 48.34375 71.1875 48.90625 71.1875 49.53125 L 71.1875 71.9375 L 88.71875 71.9375 C 89.28125 71.9375 89.8125 72.25 90.09375 72.71875 C 90.375 73.21875 90.375 73.8125 90.0625 74.28125 C 81.46875 88.4375 66.5 96.875 50 96.875 Z M 14.15625 75.09375 C 22.34375 86.8125 35.53125 93.75 50 93.75 C 64.46875 93.75 77.65625 86.8125 85.84375 75.09375 L 69.625 75.09375 C 68.75 75.09375 68.0625 74.40625 68.0625 73.53125 L 68.0625 53.34375 L 51.09375 70.3125 C 50.46875 70.9375 49.5 70.9375 48.875 70.3125 L 31.90625 53.34375 L 31.90625 73.53125 C 31.90625 74.40625 31.21875 75.09375 30.34375 75.09375 Z M 14.15625 75.09375 "/>
<path style=" stroke:none;fill-rule:nonzero;fill:rgb(27.058824%,35.294118%,39.215686%);fill-opacity:1;" d="M 93 65.625 L 79.4375 65.625 C 78.5625 65.625 77.875 64.9375 77.875 64.0625 L 77.875 29.96875 L 51.09375 56.71875 C 50.46875 57.34375 49.5 57.34375 48.875 56.71875 L 22.125 29.9375 L 22.125 64.0625 C 22.125 64.9375 21.4375 65.625 20.5625 65.625 L 7 65.625 C 6.3125 65.625 5.71875 65.1875 5.53125 64.5625 C 3.90625 59.71875 3.125 54.96875 3.125 50 C 3.09375 37.5 7.96875 25.75 16.8125 16.875 C 25.6875 8 37.46875 3.125 50 3.125 C 62.53125 3.125 74.3125 8 83.1875 16.875 C 92.03125 25.71875 96.875 37.5 96.875 50 C 96.875 54.96875 96.09375 59.71875 94.46875 64.5625 C 94.28125 65.1875 93.6875 65.625 93 65.625 Z M 81 62.5 L 91.875 62.5 C 93.15625 58.375 93.75 54.25 93.75 50 C 93.75 38.3125 89.21875 27.34375 80.96875 19.09375 C 72.71875 10.8125 61.71875 6.25 50 6.25 C 38.3125 6.25 27.3125 10.8125 19.03125 19.09375 C 10.78125 27.375 6.25 38.34375 6.25 50 C 6.25 54.25 6.875 58.375 8.125 62.5 L 19 62.5 L 19 29.96875 C 19 28.6875 19.71875 27.5625 20.90625 27.09375 C 22.0625 26.59375 23.40625 26.84375 24.3125 27.75 L 50 53.40625 L 75.6875 27.71875 C 76.59375 26.8125 77.90625 26.5625 79.0625 27.0625 C 80.25 27.5625 81 28.6875 81 29.96875 Z M 81 62.5 "/>
</g>
</svg>
