<?xml version="1.0" ?><!DOCTYPE svg  PUBLIC '-//W3C//DTD SVG 1.1//EN'  'http://www.w3.org/Graphics/SVG/1.1/DTD/svg11.dtd'><svg height="32px" id="_x3C_Layer_x3E_" style="enable-background:new 0 0 32 32;" version="1.1" viewBox="0 0 32 32" width="32px" xml:space="preserve" xmlns="http://www.w3.org/2000/svg" xmlns:xlink="http://www.w3.org/1999/xlink"><style type="text/css">
<![CDATA[
	.st0{fill:#E3F2FD;}
	.st1{fill:#80D8FF;}
	.st2{fill:#1AD2A4;}
	.st3{fill:#ECEFF1;}
	.st4{fill:#55FB9B;}
	.st5{fill:#BBDEFB;}
	.st6{fill:#C1AEE1;}
	.st7{fill:#FF5252;}
	.st8{fill:#FF8A80;}
	.st9{fill:#FFB74D;}
	.st10{fill:#FFF176;}
	.st11{fill:#FFFFFF;}
	.st12{fill:#65C7EA;}
	.st13{fill:#CFD8DC;}
	.st14{fill:#37474F;}
	.st15{fill:#78909C;}
	.st16{fill:#42A5F5;}
	.st17{fill:#455A64;}
]]>
</style><g id="Ripple_XRP"><g id="XMLID_186_"><circle class="st12" cx="16" cy="16" id="XMLID_74_" r="14.5"/></g><g id="XMLID_123_"><g id="XMLID_177_"><path class="st17" d="M16,31C7.73,31,1,24.27,1,16S7.73,1,16,1s15,6.73,15,15S24.27,31,16,31z M16,2     C8.28,2,2,8.28,2,16s6.28,14,14,14s14-6.28,14-14S23.72,2,16,2z" id="XMLID_691_"/></g><g id="XMLID_141_"><path class="st11" d="M21.09,17.93c-0.63-0.35-1.34-0.49-2.11-0.49c-0.63,0-1.47-0.42-1.47-1.46     c0-0.84,0.63-1.46,1.47-1.46c0.7,0,1.47-0.14,2.11-0.49c1.19-0.69,1.9-1.95,1.9-3.27c0-1.32-0.7-2.58-1.9-3.27     C20.53,7.14,19.83,7,19.19,7c-0.63,0-1.33,0.14-1.89,0.48c-1.19,0.69-1.9,1.95-1.9,3.27c0,0.69,0.28,1.39,0.63,2.02     c0.28,0.56,0.42,1.53-0.56,2.02c-0.7,0.42-1.61,0.14-2.03-0.56c-0.42-0.56-0.91-1.12-1.54-1.53c-1.19-0.69-2.6-0.69-3.79,0     c-1.19,0.69-1.9,1.96-1.9,3.28c0,1.32,0.7,2.58,1.9,3.28c1.19,0.69,2.6,0.69,3.79,0c0.63-0.35,1.12-0.9,1.47-1.53     c0.28-0.49,1.05-1.12,2.03-0.56c0.7,0.42,0.91,1.32,0.56,2.02c-0.35,0.63-0.56,1.33-0.56,2.02c0,1.32,0.7,2.58,1.9,3.27     c1.19,0.7,2.6,0.7,3.79,0c1.19-0.69,1.9-1.95,1.9-3.27C22.99,19.88,22.29,18.63,21.09,17.93z" id="XMLID_76_"/><path class="st17" d="M19.2,25.5c-0.74,0-1.48-0.2-2.15-0.59c-1.32-0.76-2.14-2.18-2.14-3.7     c0-0.74,0.22-1.53,0.63-2.26c0.23-0.47,0.07-1.08-0.38-1.35c-0.83-0.48-1.32,0.34-1.34,0.38c-0.42,0.75-1,1.35-1.67,1.72     c-1.34,0.78-2.94,0.78-4.28-0.01c-1.32-0.77-2.14-2.19-2.14-3.71c0-1.52,0.82-2.94,2.14-3.71c1.34-0.78,2.95-0.78,4.29,0     c0.61,0.4,1.14,0.93,1.69,1.67c0.32,0.52,0.93,0.69,1.38,0.43c0.27-0.14,0.42-0.29,0.49-0.49c0.1-0.29,0.01-0.64-0.11-0.88     c-0.46-0.82-0.69-1.56-0.69-2.24c0-1.51,0.82-2.93,2.15-3.71c0.78-0.48,1.68-0.55,2.15-0.55c0.81,0,1.57,0.2,2.16,0.56     c1.31,0.76,2.13,2.18,2.13,3.7c0,1.51-0.82,2.93-2.14,3.7c-0.65,0.36-1.49,0.56-2.36,0.56c-0.56,0-0.97,0.4-0.97,0.96     c0,0.95,0.93,0.96,0.97,0.96c0.91,0,1.68,0.18,2.35,0.55c0,0,0.01,0,0.01,0.01c1.32,0.77,2.14,2.19,2.14,3.71     c0,1.51-0.82,2.93-2.14,3.7C20.67,25.3,19.93,25.5,19.2,25.5z M14.64,16.44c0.31,0,0.66,0.08,1.01,0.29     c0.91,0.54,1.25,1.72,0.76,2.68c-0.34,0.61-0.51,1.22-0.51,1.8c0,1.16,0.63,2.25,1.65,2.84c1.05,0.61,2.24,0.61,3.29,0     c1.02-0.59,1.65-1.68,1.65-2.84c0-1.16-0.63-2.25-1.64-2.84c-0.52-0.28-1.13-0.42-1.86-0.42c-0.96,0-1.97-0.69-1.97-1.96     c0-1.12,0.85-1.96,1.97-1.96c0.7,0,1.37-0.15,1.86-0.43c1.01-0.59,1.64-1.68,1.64-2.83c0-1.16-0.63-2.25-1.65-2.84     C20.4,7.65,19.82,7.5,19.19,7.5c-0.59,0.04-1.2,0.15-1.63,0.41c-1.03,0.6-1.66,1.69-1.66,2.85c0,0.51,0.19,1.09,0.57,1.77     c0.14,0.28,0.42,0.95,0.18,1.66c-0.15,0.45-0.48,0.81-0.95,1.05c-0.89,0.53-2.11,0.21-2.68-0.75c-0.45-0.6-0.9-1.05-1.39-1.38     c-1.01-0.58-2.23-0.58-3.26,0.02c-1.02,0.59-1.65,1.68-1.65,2.84c0,1.16,0.63,2.25,1.65,2.84c1.03,0.6,2.25,0.6,3.28,0     c0.51-0.28,0.96-0.75,1.29-1.34C13.22,16.98,13.84,16.44,14.64,16.44z" id="XMLID_680_"/></g></g></g></svg>