<?xml version="1.0" encoding="UTF-8"?>
<svg xmlns="http://www.w3.org/2000/svg" xmlns:xlink="http://www.w3.org/1999/xlink" width="100px" height="px" viewBox="0 0 100 100" version="1.1">
<g id="surface1">
<path style=" stroke:none;fill-rule:nonzero;fill:rgb(39.607843%,78.039216%,91.764706%);fill-opacity:1;" d="M 95.3125 50 C 95.3125 75.027344 75.027344 95.3125 50 95.3125 C 24.972656 95.3125 4.6875 75.027344 4.6875 50 C 4.6875 24.972656 24.972656 4.6875 50 4.6875 C 75.027344 4.6875 95.3125 24.972656 95.3125 50 Z M 95.3125 50 "/>
<path style=" stroke:none;fill-rule:nonzero;fill:rgb(27.058824%,35.294118%,39.215686%);fill-opacity:1;" d="M 50 96.875 C 24.15625 96.875 3.125 75.84375 3.125 50 C 3.125 24.15625 24.15625 3.125 50 3.125 C 75.84375 3.125 96.875 24.15625 96.875 50 C 96.875 75.84375 75.84375 96.875 50 96.875 Z M 50 6.25 C 25.875 6.25 6.25 25.875 6.25 50 C 6.25 74.125 25.875 93.75 50 93.75 C 74.125 93.75 93.75 74.125 93.75 50 C 93.75 25.875 74.125 6.25 50 6.25 Z M 50 6.25 "/>
<path style=" stroke:none;fill-rule:nonzero;fill:rgb(100%,100%,100%);fill-opacity:1;" d="M 65.90625 56.03125 C 63.9375 54.9375 61.71875 54.5 59.3125 54.5 C 57.34375 54.5 54.71875 53.1875 54.71875 49.9375 C 54.71875 47.3125 56.6875 45.375 59.3125 45.375 C 61.5 45.375 63.90625 44.9375 65.90625 43.84375 C 69.625 41.6875 71.84375 37.75 71.84375 33.625 C 71.84375 29.5 69.65625 25.5625 65.90625 23.40625 C 64.15625 22.3125 61.96875 21.875 59.96875 21.875 C 58 21.875 55.8125 22.3125 54.0625 23.375 C 50.34375 25.53125 48.125 29.46875 48.125 33.59375 C 48.125 35.75 49 37.9375 50.09375 39.90625 C 50.96875 41.65625 51.40625 44.6875 48.34375 46.21875 C 46.15625 47.53125 43.3125 46.65625 42 44.46875 C 40.6875 42.71875 39.15625 40.96875 37.1875 39.6875 C 33.46875 37.53125 29.0625 37.53125 25.34375 39.6875 C 21.625 41.84375 19.40625 45.8125 19.40625 49.9375 C 19.40625 54.0625 21.59375 58 25.34375 60.1875 C 29.0625 62.34375 33.46875 62.34375 37.1875 60.1875 C 39.15625 59.09375 40.6875 57.375 41.78125 55.40625 C 42.65625 53.875 45.0625 51.90625 48.125 53.65625 C 50.3125 54.96875 50.96875 57.78125 49.875 59.96875 C 48.78125 61.9375 48.125 64.125 48.125 66.28125 C 48.125 70.40625 50.3125 74.34375 54.0625 76.5 C 57.78125 78.6875 62.1875 78.6875 65.90625 76.5 C 69.625 74.34375 71.84375 70.40625 71.84375 66.28125 C 71.84375 62.125 69.65625 58.21875 65.90625 56.03125 Z M 65.90625 56.03125 "/>
<path style=" stroke:none;fill-rule:nonzero;fill:rgb(27.058824%,35.294118%,39.215686%);fill-opacity:1;" d="M 60 79.6875 C 57.6875 79.6875 55.375 79.0625 53.28125 77.84375 C 49.15625 75.46875 46.59375 71.03125 46.59375 66.28125 C 46.59375 63.96875 47.28125 61.5 48.5625 59.21875 C 49.28125 57.75 48.78125 55.84375 47.375 55 C 44.78125 53.5 43.25 56.0625 43.1875 56.1875 C 41.875 58.53125 40.0625 60.40625 37.96875 61.5625 C 33.78125 64 28.78125 64 24.59375 61.53125 C 20.46875 59.125 17.90625 54.6875 17.90625 49.9375 C 17.90625 45.1875 20.46875 40.75 24.59375 38.34375 C 28.78125 35.90625 33.8125 35.90625 38 38.34375 C 39.90625 39.59375 41.5625 41.25 43.28125 43.5625 C 44.28125 45.1875 46.1875 45.71875 47.59375 44.90625 C 48.4375 44.46875 48.90625 44 49.125 43.375 C 49.4375 42.46875 49.15625 41.375 48.78125 40.625 C 47.34375 38.0625 46.625 35.75 46.625 33.625 C 46.625 28.90625 49.1875 24.46875 53.34375 22.03125 C 55.78125 20.53125 58.59375 20.3125 60.0625 20.3125 C 62.59375 20.3125 64.96875 20.9375 66.8125 22.0625 C 70.90625 24.4375 73.46875 28.875 73.46875 33.625 C 73.46875 38.34375 70.90625 42.78125 66.78125 45.1875 C 64.75 46.3125 62.125 46.9375 59.40625 46.9375 C 57.65625 46.9375 56.375 48.1875 56.375 49.9375 C 56.375 52.90625 59.28125 52.9375 59.40625 52.9375 C 62.25 52.9375 64.65625 53.5 66.75 54.65625 C 66.75 54.65625 66.78125 54.65625 66.78125 54.6875 C 70.90625 57.09375 73.46875 61.53125 73.46875 66.28125 C 73.46875 71 70.90625 75.4375 66.78125 77.84375 C 64.59375 79.0625 62.28125 79.6875 60 79.6875 Z M 45.75 51.375 C 46.71875 51.375 47.8125 51.625 48.90625 52.28125 C 51.75 53.96875 52.8125 57.65625 51.28125 60.65625 C 50.21875 62.5625 49.6875 64.46875 49.6875 66.28125 C 49.6875 69.90625 51.65625 73.3125 54.84375 75.15625 C 58.125 77.0625 61.84375 77.0625 65.125 75.15625 C 68.3125 73.3125 70.28125 69.90625 70.28125 66.28125 C 70.28125 62.65625 68.3125 59.25 65.15625 57.40625 C 63.53125 56.53125 61.625 56.09375 59.34375 56.09375 C 56.34375 56.09375 53.1875 53.9375 53.1875 49.96875 C 53.1875 46.46875 55.84375 43.84375 59.34375 43.84375 C 61.53125 43.84375 63.625 43.375 65.15625 42.5 C 68.3125 40.65625 70.28125 37.25 70.28125 33.65625 C 70.28125 30.03125 68.3125 26.625 65.125 24.78125 C 63.75 23.90625 61.9375 23.4375 59.96875 23.4375 C 58.125 23.5625 56.21875 23.90625 54.875 24.71875 C 51.65625 26.59375 49.6875 30 49.6875 33.625 C 49.6875 35.21875 50.28125 37.03125 51.46875 39.15625 C 51.90625 40.03125 52.78125 42.125 52.03125 44.34375 C 51.5625 45.75 50.53125 46.875 49.0625 47.625 C 46.28125 49.28125 42.46875 48.28125 40.6875 45.28125 C 39.28125 43.40625 37.875 42 36.34375 40.96875 C 33.1875 39.15625 29.375 39.15625 26.15625 41.03125 C 22.96875 42.875 21 46.28125 21 49.90625 C 21 53.53125 22.96875 56.9375 26.15625 58.78125 C 29.375 60.65625 33.1875 60.65625 36.40625 58.78125 C 38 57.90625 39.40625 56.4375 40.4375 54.59375 C 41.3125 53.0625 43.25 51.375 45.75 51.375 Z M 45.75 51.375 "/>
</g>
</svg>
