<?xml version="1.0" ?><!DOCTYPE svg  PUBLIC '-//W3C//DTD SVG 1.1//EN'  'http://www.w3.org/Graphics/SVG/1.1/DTD/svg11.dtd'><svg height="32px" id="_x3C_Layer_x3E_" style="enable-background:new 0 0 32 32;" version="1.1" viewBox="0 0 32 32" width="32px" xml:space="preserve" xmlns="http://www.w3.org/2000/svg" xmlns:xlink="http://www.w3.org/1999/xlink"><style type="text/css">
<![CDATA[
	.st0{fill:#E3F2FD;}
	.st1{fill:#80D8FF;}
	.st2{fill:#1AD2A4;}
	.st3{fill:#ECEFF1;}
	.st4{fill:#55FB9B;}
	.st5{fill:#BBDEFB;}
	.st6{fill:#C1AEE1;}
	.st7{fill:#FF5252;}
	.st8{fill:#FF8A80;}
	.st9{fill:#FFB74D;}
	.st10{fill:#FFF176;}
	.st11{fill:#FFFFFF;}
	.st12{fill:#65C7EA;}
	.st13{fill:#CFD8DC;}
	.st14{fill:#37474F;}
	.st15{fill:#78909C;}
	.st16{fill:#42A5F5;}
	.st17{fill:#455A64;}
]]>
</style><g id="Tron_x2C__crypto"><g id="XMLID_140_"><circle class="st7" cx="16" cy="16" id="XMLID_22_" r="14.5"/></g><g id="XMLID_128_"><g id="XMLID_138_"><path class="st17" d="M16,31C7.73,31,1,24.27,1,16S7.73,1,16,1s15,6.73,15,15S24.27,31,16,31z M16,2     C8.28,2,2,8.28,2,16s6.28,14,14,14s14-6.28,14-14S23.72,2,16,2z" id="XMLID_750_"/></g><g id="XMLID_81_"><g id="XMLID_119_"><path class="st11" d="M17,15.3c-0.24,0-0.46-0.18-0.49-0.43c-0.04-0.27,0.15-0.53,0.42-0.57l8.5-1.26      c0.27-0.03,0.53,0.15,0.57,0.42c0.04,0.27-0.15,0.53-0.42,0.57l-8.5,1.26C17.05,15.29,17.02,15.3,17,15.3z" id="XMLID_749_"/></g><g id="XMLID_118_"><path class="st11" d="M17,15.3c-0.11,0-0.22-0.04-0.32-0.11l-8.5-6.93c-0.21-0.17-0.25-0.49-0.07-0.7      c0.18-0.21,0.49-0.25,0.7-0.07l8.5,6.93c0.21,0.17,0.25,0.49,0.07,0.7C17.29,15.23,17.15,15.3,17,15.3z" id="XMLID_748_"/></g><g id="XMLID_117_"><path class="st11" d="M15.43,26.63c-0.02,0-0.05,0-0.07,0c-0.27-0.04-0.46-0.29-0.43-0.56l1.57-11.33      c0.02-0.12,0.08-0.23,0.17-0.31l5.16-4.53c0.21-0.18,0.52-0.16,0.71,0.05c0.18,0.21,0.16,0.52-0.05,0.71l-5.02,4.41L15.92,26.2      C15.89,26.45,15.67,26.63,15.43,26.63z" id="XMLID_747_"/></g><g id="XMLID_116_"><path class="st11" d="M15.43,26.63c-0.03,0-0.05,0-0.08-0.01c-0.18-0.03-0.33-0.15-0.39-0.32L8.03,8.05      C7.97,7.88,8,7.69,8.11,7.55c0.11-0.14,0.3-0.2,0.47-0.17l13.66,2.39c0.1,0.02,0.19,0.06,0.26,0.14l3.34,3.27      c0.18,0.18,0.2,0.47,0.04,0.67L15.82,26.44C15.72,26.56,15.58,26.63,15.43,26.63z M9.28,8.51l6.3,16.62l9.24-11.56l-2.9-2.85      L9.28,8.51z" id="XMLID_744_"/></g></g></g></g></svg>