<?xml version="1.0" encoding="UTF-8"?>
<svg xmlns="http://www.w3.org/2000/svg" xmlns:xlink="http://www.w3.org/1999/xlink" width="100px" height="px" viewBox="0 0 100 100" version="1.1">
<g id="surface1">
<path style=" stroke:none;fill-rule:nonzero;fill:rgb(100%,32.156863%,32.156863%);fill-opacity:1;" d="M 95.3125 50 C 95.3125 75.027344 75.027344 95.3125 50 95.3125 C 24.972656 95.3125 4.6875 75.027344 4.6875 50 C 4.6875 24.972656 24.972656 4.6875 50 4.6875 C 75.027344 4.6875 95.3125 24.972656 95.3125 50 Z M 95.3125 50 "/>
<path style=" stroke:none;fill-rule:nonzero;fill:rgb(27.058824%,35.294118%,39.215686%);fill-opacity:1;" d="M 50 96.875 C 24.15625 96.875 3.125 75.84375 3.125 50 C 3.125 24.15625 24.15625 3.125 50 3.125 C 75.84375 3.125 96.875 24.15625 96.875 50 C 96.875 75.84375 75.84375 96.875 50 96.875 Z M 50 6.25 C 25.875 6.25 6.25 25.875 6.25 50 C 6.25 74.125 25.875 93.75 50 93.75 C 74.125 93.75 93.75 74.125 93.75 50 C 93.75 25.875 74.125 6.25 50 6.25 Z M 50 6.25 "/>
<path style=" stroke:none;fill-rule:nonzero;fill:rgb(100%,100%,100%);fill-opacity:1;" d="M 53.125 47.8125 C 52.375 47.8125 51.6875 47.25 51.59375 46.46875 C 51.46875 45.625 52.0625 44.8125 52.90625 44.6875 L 79.46875 40.75 C 80.3125 40.65625 81.125 41.21875 81.25 42.0625 C 81.375 42.90625 80.78125 43.71875 79.9375 43.84375 L 53.375 47.78125 C 53.28125 47.78125 53.1875 47.8125 53.125 47.8125 Z M 53.125 47.8125 "/>
<path style=" stroke:none;fill-rule:nonzero;fill:rgb(100%,100%,100%);fill-opacity:1;" d="M 53.125 47.8125 C 52.78125 47.8125 52.4375 47.6875 52.125 47.46875 L 25.5625 25.8125 C 24.90625 25.28125 24.78125 24.28125 25.34375 23.625 C 25.90625 22.96875 26.875 22.84375 27.53125 23.40625 L 54.09375 45.0625 C 54.75 45.59375 54.875 46.59375 54.3125 47.25 C 54.03125 47.59375 53.59375 47.8125 53.125 47.8125 Z M 53.125 47.8125 "/>
<path style=" stroke:none;fill-rule:nonzero;fill:rgb(100%,100%,100%);fill-opacity:1;" d="M 48.21875 83.21875 C 48.15625 83.21875 48.0625 83.21875 48 83.21875 C 47.15625 83.09375 46.5625 82.3125 46.65625 81.46875 L 51.5625 46.0625 C 51.625 45.6875 51.8125 45.34375 52.09375 45.09375 L 68.21875 30.9375 C 68.875 30.375 69.84375 30.4375 70.4375 31.09375 C 71 31.75 70.9375 32.71875 70.28125 33.3125 L 54.59375 47.09375 L 49.75 81.875 C 49.65625 82.65625 48.96875 83.21875 48.21875 83.21875 Z M 48.21875 83.21875 "/>
<path style=" stroke:none;fill-rule:nonzero;fill:rgb(100%,100%,100%);fill-opacity:1;" d="M 48.21875 83.21875 C 48.125 83.21875 48.0625 83.21875 47.96875 83.1875 C 47.40625 83.09375 46.9375 82.71875 46.75 82.1875 L 25.09375 25.15625 C 24.90625 24.625 25 24.03125 25.34375 23.59375 C 25.6875 23.15625 26.28125 22.96875 26.8125 23.0625 L 69.5 30.53125 C 69.8125 30.59375 70.09375 30.71875 70.3125 30.96875 L 80.75 41.1875 C 81.3125 41.75 81.375 42.65625 80.875 43.28125 L 49.4375 82.625 C 49.125 83 48.6875 83.21875 48.21875 83.21875 Z M 29 26.59375 L 48.6875 78.53125 L 77.5625 42.40625 L 68.5 33.5 Z M 29 26.59375 "/>
</g>
</svg>
