<?xml version="1.0" encoding="UTF-8"?>
<svg xmlns="http://www.w3.org/2000/svg" xmlns:xlink="http://www.w3.org/1999/xlink" width="100px" height="px" viewBox="0 0 100 100" version="1.1">
<g id="surface1">
<path style=" stroke:none;fill-rule:nonzero;fill:rgb(10.196078%,82.352941%,64.313725%);fill-opacity:1;" d="M 95.3125 50 C 95.3125 75.027344 75.027344 95.3125 50 95.3125 C 24.972656 95.3125 4.6875 75.027344 4.6875 50 C 4.6875 24.972656 24.972656 4.6875 50 4.6875 C 75.027344 4.6875 95.3125 24.972656 95.3125 50 Z M 95.3125 50 "/>
<path style=" stroke:none;fill-rule:nonzero;fill:rgb(27.058824%,35.294118%,39.215686%);fill-opacity:1;" d="M 50 96.875 C 24.15625 96.875 3.125 75.84375 3.125 50 C 3.125 24.15625 24.15625 3.125 50 3.125 C 75.84375 3.125 96.875 24.15625 96.875 50 C 96.875 75.84375 75.84375 96.875 50 96.875 Z M 50 6.25 C 25.875 6.25 6.25 25.875 6.25 50 C 6.25 74.125 25.875 93.75 50 93.75 C 74.125 93.75 93.75 74.125 93.75 50 C 93.75 25.875 74.125 6.25 50 6.25 Z M 50 6.25 "/>
<path style=" stroke:none;fill-rule:nonzero;fill:rgb(100%,100%,100%);fill-opacity:1;" d="M 50 56.25 C 38.96875 56.25 20.3125 54.59375 20.3125 48.4375 C 20.3125 42.375 38.34375 41.03125 43.875 40.78125 C 44.84375 40.71875 45.46875 41.40625 45.5 42.28125 C 45.53125 43.15625 44.875 43.875 44.03125 43.90625 C 30.375 44.5625 23.78125 47.25 23.4375 48.46875 C 23.90625 50.0625 33.4375 53.125 50 53.125 C 66.5625 53.125 76.09375 50.0625 76.5625 48.40625 C 76.21875 47.25 69.6875 44.59375 56.15625 43.90625 C 55.28125 43.875 54.625 43.125 54.6875 42.28125 C 54.71875 41.4375 55.375 40.71875 56.3125 40.8125 C 61.78125 41.09375 79.6875 42.46875 79.6875 48.46875 C 79.6875 54.59375 61.03125 56.25 50 56.25 Z M 50 56.25 "/>
<path style=" stroke:none;fill-rule:nonzero;fill:rgb(100%,100%,100%);fill-opacity:1;" d="M 70.3125 31.25 L 29.6875 31.25 C 28.8125 31.25 28.125 30.5625 28.125 29.6875 C 28.125 28.8125 28.8125 28.125 29.6875 28.125 L 70.3125 28.125 C 71.1875 28.125 71.875 28.8125 71.875 29.6875 C 71.875 30.5625 71.1875 31.25 70.3125 31.25 Z M 70.3125 31.25 "/>
<path style=" stroke:none;fill-rule:nonzero;fill:rgb(100%,100%,100%);fill-opacity:1;" d="M 50 76.5625 C 49.125 76.5625 48.4375 75.875 48.4375 75 L 48.4375 54.6875 C 48.4375 53.8125 49.125 53.125 50 53.125 C 50.875 53.125 51.5625 53.8125 51.5625 54.6875 L 51.5625 75 C 51.5625 75.875 50.875 76.5625 50 76.5625 Z M 50 76.5625 "/>
<path style=" stroke:none;fill-rule:nonzero;fill:rgb(100%,100%,100%);fill-opacity:1;" d="M 50 50 C 49.125 50 48.4375 49.3125 48.4375 48.4375 L 48.4375 29.6875 C 48.4375 28.8125 49.125 28.125 50 28.125 C 50.875 28.125 51.5625 28.8125 51.5625 29.6875 L 51.5625 48.4375 C 51.5625 49.3125 50.875 50 50 50 Z M 50 50 "/>
</g>
</svg>
